<svg width="53" height="54" viewBox="0 0 53 54" fill="none" xmlns="http://www.w3.org/2000/svg">
<g clip-path="url(#clip0_20_1925)">
<path d="M43.3326 35.2333C42.0593 35.2333 40.8497 35.7405 39.9372 36.6577C39.0247 37.5856 38.5154 38.7941 38.5154 40.089C38.5154 41.3838 39.0141 42.5923 39.9372 43.5203C40.8603 44.4375 42.0593 44.9446 43.3326 44.9446C45.9428 44.9446 48.0649 42.765 48.0649 40.089C48.0649 37.413 45.9428 35.2333 43.3326 35.2333ZM43.3326 42.7866C41.8683 42.7866 40.6375 41.5565 40.6375 40.089C40.6375 38.6215 41.8683 37.3914 43.3326 37.3914C44.7756 37.3914 45.9428 38.5999 45.9428 40.089C45.9428 41.578 44.7756 42.7866 43.3326 42.7866ZM44.5634 19.0586C44.3724 18.8752 44.1178 18.7781 43.8525 18.7781H38.4093C37.8257 18.7781 37.3483 19.2636 37.3483 19.8571V28.7052C37.3483 29.2987 37.8257 29.7842 38.4093 29.7842H47.0463C47.6298 29.7842 48.1073 29.2987 48.1073 28.7052V22.7813C48.1073 22.4792 47.98 22.1878 47.7572 21.9828L44.5634 19.0586ZM45.9852 27.6262H39.4704V20.9254H43.4387L45.9852 23.2561V27.6262ZM17.4218 35.2333C16.1485 35.2333 14.9389 35.7405 14.0264 36.6577C13.1139 37.5856 12.6046 38.7941 12.6046 40.089C12.6046 41.3838 13.1033 42.5923 14.0264 43.5203C14.9495 44.4375 16.1485 44.9446 17.4218 44.9446C20.0319 44.9446 22.154 42.765 22.154 40.089C22.154 37.413 20.0319 35.2333 17.4218 35.2333ZM17.4218 42.7866C15.9575 42.7866 14.7267 41.5565 14.7267 40.089C14.7267 38.6215 15.9575 37.3914 17.4218 37.3914C18.8648 37.3914 20.0319 38.5999 20.0319 40.089C20.0319 41.578 18.8648 42.7866 17.4218 42.7866ZM10.3446 36.5605H8.21184V33.6903C8.21184 33.0968 7.73437 32.6113 7.15079 32.6113C6.56722 32.6113 6.08974 33.0968 6.08974 33.6903V37.6396C6.08974 38.233 6.56722 38.7186 7.15079 38.7186H10.3446C10.9281 38.7186 11.4056 38.233 11.4056 37.6396C11.4056 37.0461 10.9281 36.5605 10.3446 36.5605ZM15.7241 30.6798C15.7241 30.0863 15.2466 29.6008 14.663 29.6008H1.79249C1.20892 29.6008 0.731445 30.0863 0.731445 30.6798C0.731445 31.2733 1.20892 31.7588 1.79249 31.7588H14.663C15.2466 31.7588 15.7241 31.2841 15.7241 30.6798ZM3.94642 26.7845L16.817 26.86C17.4005 26.86 17.878 26.3853 17.8886 25.7918C17.8992 25.1875 17.4218 24.702 16.8382 24.702L3.96765 24.6264C3.95704 24.6264 3.95704 24.6264 3.95704 24.6264C3.37346 24.6264 2.89599 25.1012 2.89599 25.6947C2.88538 26.2989 3.36285 26.7845 3.94642 26.7845ZM6.11097 21.8857H18.9815C19.5651 21.8857 20.0425 21.4001 20.0425 20.8067C20.0425 20.2132 19.5651 19.7276 18.9815 19.7276H6.11097C5.52739 19.7276 5.04992 20.2132 5.04992 20.8067C5.04992 21.4001 5.52739 21.8857 6.11097 21.8857ZM52.447 20.429L44.8499 14.0303C44.6589 13.8685 44.4255 13.7822 44.1708 13.7822H35.2368V9.89764C35.2368 9.30417 34.7593 8.8186 34.1757 8.8186H7.15079C6.56722 8.8186 6.08974 9.30417 6.08974 9.89764V17.7962C6.08974 18.3896 6.56722 18.8752 7.15079 18.8752C7.73437 18.8752 8.21184 18.3896 8.21184 17.7962V10.9767H33.1253V36.5605H24.4247C23.8411 36.5605 23.3636 37.0461 23.3636 37.6396C23.3636 38.233 23.8411 38.7186 24.4247 38.7186H37.3801C37.9637 38.7186 38.4411 38.233 38.4411 37.6396C38.4411 37.0461 37.9637 36.5605 37.3801 36.5605H35.2474V15.9402H43.7994L50.7175 21.767L50.6432 36.539H49.5397C48.9561 36.539 48.4787 37.0245 48.4787 37.618C48.4787 38.2115 48.9561 38.697 49.5397 38.697H51.6936C52.2772 38.697 52.7547 38.2223 52.7547 37.6288L52.8396 21.2706C52.829 20.9469 52.691 20.634 52.447 20.429Z" fill="#EB691D"/>
</g>
<defs>
<clipPath id="clip0_20_1925">
<rect width="52.1081" height="52.9913" fill="white" transform="translate(0.731445 0.38623)"/>
</clipPath>
</defs>
</svg>
