<svg width="56" height="48" viewBox="0 0 56 48" fill="none" xmlns="http://www.w3.org/2000/svg">
<path d="M12.3284 47.0187C8.6644 47.0187 5.80867 45.5639 3.76117 42.6543C1.71367 39.7447 0.689915 35.7036 0.689915 30.531C0.689915 23.7419 2.25248 17.8149 5.37762 12.75C8.61052 7.68514 13.3521 3.48237 19.6024 0.141705L23.8051 7.57737C19.4946 10.1637 16.2617 13.0194 14.1064 16.1445C11.9512 19.2697 10.8735 23.203 10.8735 27.9446L12.3284 39.5831L5.37762 30.531C6.45525 29.5611 7.53288 28.8606 8.61052 28.4296C9.68815 27.8908 10.9274 27.6213 12.3284 27.6213C14.9147 27.6213 17.1777 28.4296 19.1174 30.046C21.0572 31.5547 22.027 33.8177 22.027 36.8351C22.027 39.9602 21.1111 42.4388 19.2791 44.2708C17.4471 46.1027 15.1302 47.0187 12.3284 47.0187ZM43.6875 47.0187C40.0235 47.0187 37.1678 45.5639 35.1203 42.6543C33.0728 39.7447 32.049 35.7036 32.049 30.531C32.049 23.7419 33.6116 17.8149 36.7367 12.75C39.9696 7.68514 44.7112 3.48237 50.9615 0.141705L55.1643 7.57737C50.8537 10.1637 47.6208 13.0194 45.4656 16.1445C43.3103 19.2697 42.2327 23.203 42.2327 27.9446L43.6875 39.5831L36.7367 30.531C37.8144 29.5611 38.892 28.8606 39.9696 28.4296C41.0473 27.8908 42.2865 27.6213 43.6875 27.6213C46.2738 27.6213 48.5368 28.4296 50.4766 30.046C52.4163 31.5547 53.3862 33.8177 53.3862 36.8351C53.3862 39.9602 52.4702 42.4388 50.6382 44.2708C48.8062 46.1027 46.4893 47.0187 43.6875 47.0187Z" fill="#F05A28" fill-opacity="0.34"/>
</svg>
