<svg width="55" height="48" viewBox="0 0 55 48" fill="none" xmlns="http://www.w3.org/2000/svg">
<path d="M4.34749 47.0489L0.144719 39.6132C4.45525 37.0269 7.68815 34.1712 9.84341 31.046C11.9987 27.8131 13.0763 23.8798 13.0763 19.2459L11.4599 7.60751L18.5722 16.498C17.4946 17.4678 16.417 18.2222 15.3393 18.761C14.2617 19.2998 13.0224 19.5692 11.6215 19.5692C9.03519 19.5692 6.77216 18.761 4.83242 17.1445C2.89268 15.4203 1.92281 13.1573 1.92281 10.3555C1.92281 7.12257 2.8388 4.64401 4.67078 2.9198C6.50275 1.08782 8.81966 0.171838 11.6215 0.171838C15.3932 0.171838 18.249 1.62664 20.1887 4.53625C22.2362 7.33809 23.2599 11.3792 23.2599 16.6596C23.2599 23.4487 21.6435 29.3757 18.4106 34.4406C15.2855 39.3977 10.5978 43.6004 4.34749 47.0489ZM35.7066 47.0489L31.5038 39.6132C35.8144 37.0269 39.0473 34.1712 41.2025 31.046C43.3578 27.8131 44.4354 23.8798 44.4354 19.2459L42.819 7.60751L49.9314 16.498C48.8537 17.4678 47.7761 18.2222 46.6985 18.761C45.6208 19.2998 44.3816 19.5692 42.9806 19.5692C40.3943 19.5692 38.1313 18.761 36.1915 17.1445C34.2518 15.4203 33.2819 13.1573 33.2819 10.3555C33.2819 7.12257 34.1979 4.64401 36.0299 2.9198C37.8619 1.08782 40.1788 0.171838 42.9806 0.171838C46.7523 0.171838 49.6081 1.62664 51.5478 4.53625C53.5953 7.33809 54.6191 11.3792 54.6191 16.6596C54.6191 23.4487 53.0026 29.3757 49.7697 34.4406C46.6446 39.3977 41.9569 43.6004 35.7066 47.0489Z" fill="#F05A28" fill-opacity="0.34"/>
</svg>
