<svg width="21" height="21" viewBox="0 0 21 21" fill="none" xmlns="http://www.w3.org/2000/svg">
<path d="M6.04167 0H14.7917C18.125 0 20.8333 2.70833 20.8333 6.04167V14.7917C20.8333 16.394 20.1968 17.9307 19.0638 19.0638C17.9307 20.1968 16.394 20.8333 14.7917 20.8333H6.04167C2.70833 20.8333 0 18.125 0 14.7917V6.04167C0 4.43932 0.636531 2.9026 1.76956 1.76956C2.9026 0.636531 4.43932 0 6.04167 0ZM5.83333 2.08333C4.83877 2.08333 3.88494 2.47842 3.18168 3.18168C2.47842 3.88494 2.08333 4.83877 2.08333 5.83333V15C2.08333 17.0729 3.76042 18.75 5.83333 18.75H15C15.9946 18.75 16.9484 18.3549 17.6517 17.6517C18.3549 16.9484 18.75 15.9946 18.75 15V5.83333C18.75 3.76042 17.0729 2.08333 15 2.08333H5.83333ZM15.8854 3.64583C16.2308 3.64583 16.5619 3.78302 16.8061 4.0272C17.0503 4.27139 17.1875 4.60258 17.1875 4.94792C17.1875 5.29325 17.0503 5.62444 16.8061 5.86863C16.5619 6.11282 16.2308 6.25 15.8854 6.25C15.5401 6.25 15.2089 6.11282 14.9647 5.86863C14.7205 5.62444 14.5833 5.29325 14.5833 4.94792C14.5833 4.60258 14.7205 4.27139 14.9647 4.0272C15.2089 3.78302 15.5401 3.64583 15.8854 3.64583ZM10.4167 5.20833C11.798 5.20833 13.1228 5.75707 14.0995 6.73382C15.0763 7.71057 15.625 9.03533 15.625 10.4167C15.625 11.798 15.0763 13.1228 14.0995 14.0995C13.1228 15.0763 11.798 15.625 10.4167 15.625C9.03533 15.625 7.71057 15.0763 6.73382 14.0995C5.75707 13.1228 5.20833 11.798 5.20833 10.4167C5.20833 9.03533 5.75707 7.71057 6.73382 6.73382C7.71057 5.75707 9.03533 5.20833 10.4167 5.20833ZM10.4167 7.29167C9.58787 7.29167 8.79301 7.62091 8.20696 8.20696C7.62091 8.79301 7.29167 9.58787 7.29167 10.4167C7.29167 11.2455 7.62091 12.0403 8.20696 12.6264C8.79301 13.2124 9.58787 13.5417 10.4167 13.5417C11.2455 13.5417 12.0403 13.2124 12.6264 12.6264C13.2124 12.0403 13.5417 11.2455 13.5417 10.4167C13.5417 9.58787 13.2124 8.79301 12.6264 8.20696C12.0403 7.62091 11.2455 7.29167 10.4167 7.29167Z" fill="#EB691D"/>
</svg>
