<svg width="39" height="40" viewBox="0 0 39 40" fill="none" xmlns="http://www.w3.org/2000/svg">
<g clip-path="url(#clip0_20_1929)">
<path d="M34.8921 34.4759L32.7067 9.27422C32.6674 8.77549 32.2586 8.39743 31.7633 8.39743H27.1567C27.1488 4.20653 23.8157 0.795898 19.7201 0.795898C15.6244 0.795898 12.2913 4.20653 12.2834 8.39743H7.67683C7.18944 8.39743 6.78066 8.77549 6.73349 9.27422L4.5481 34.4759C4.5481 34.5081 4.5481 34.5322 4.5481 34.5644C4.5481 37.3717 7.07152 39.6562 10.1688 39.6562H29.2713C32.3686 39.6562 34.8921 37.3717 34.8921 34.5644C34.8921 34.5322 34.8921 34.5081 34.8921 34.4759ZM19.7201 2.72645C22.7781 2.72645 25.2622 5.26833 25.27 8.39743H14.1701C14.178 5.26833 16.6621 2.72645 19.7201 2.72645ZM29.2713 37.7176H10.1688C8.12491 37.7176 6.45835 36.326 6.43477 34.5966L8.54155 10.328H12.2834V13.7145C12.2834 14.2454 12.7079 14.6798 13.2268 14.6798C13.7456 14.6798 14.1701 14.2454 14.1701 13.7145V10.328H25.27V13.7145C25.27 14.2454 25.6945 14.6798 26.2134 14.6798C26.7322 14.6798 27.1567 14.2454 27.1567 13.7145V10.328H30.8986L33.0054 34.6046C32.9818 36.326 31.3152 37.7176 29.2713 37.7176Z" fill="#EB691D"/>
<path d="M23.6427 20.8898L18.077 26.5849L15.8051 24.2602C15.4357 23.8822 14.8382 23.8822 14.4688 24.2602C14.0993 24.6383 14.0993 25.2496 14.4688 25.6277L17.4088 28.6362C17.5896 28.8212 17.8333 28.9177 18.077 28.9177C18.3207 28.9177 18.5565 28.8212 18.7452 28.6362L24.9791 22.2573C25.3485 21.8792 25.3485 21.2679 24.9791 20.8898C24.6096 20.5198 24.0122 20.5198 23.6427 20.8898Z" fill="#EB691D"/>
</g>
<defs>
<clipPath id="clip0_20_1929">
<rect width="37.9771" height="38.8603" fill="white" transform="translate(0.731445 0.795898)"/>
</clipPath>
</defs>
</svg>
